<svg width="28" height="29" viewBox="0 0 28 29" fill="none" xmlns="http://www.w3.org/2000/svg">
<path d="M14 0.832031C15.9323 0.832031 17.7461 1.19661 19.4414 1.92578C21.1367 2.65495 22.6133 3.65755 23.8711 4.93359C25.1471 6.19141 26.1589 7.66797 26.9062 9.36328C27.6354 11.0768 28 12.8997 28 14.832C28 16.7461 27.6354 18.5599 26.9062 20.2734C26.1589 21.9688 25.1471 23.4544 23.8711 24.7305C22.6133 25.9883 21.1367 26.9818 19.4414 27.7109C17.7461 28.4583 15.9323 28.832 14 28.832C12.0677 28.832 10.2539 28.4583 8.55859 27.7109C6.86328 26.9818 5.3776 25.9883 4.10156 24.7305C2.84375 23.4544 1.84115 21.9688 1.09375 20.2734C0.364583 18.5599 0 16.7461 0 14.832C0 12.8997 0.364583 11.0768 1.09375 9.36328C1.82292 7.66797 2.81641 6.19141 4.07422 4.93359C5.35026 3.65755 6.84505 2.65495 8.55859 1.92578C10.2539 1.19661 12.0677 0.832031 14 0.832031ZM14 26.2617C15.5677 26.2617 17.0443 25.9609 18.4297 25.3594C19.8333 24.7578 21.0456 23.9375 22.0664 22.8984C23.1055 21.8594 23.9258 20.6471 24.5273 19.2617C25.1289 17.8763 25.4297 16.3906 25.4297 14.8047C25.4297 13.237 25.1289 11.7513 24.5273 10.3477C23.944 8.96224 23.1328 7.75 22.0938 6.71094C21.0547 5.67188 19.8424 4.85156 18.457 4.25C17.0534 3.64844 15.5677 3.34766 14 3.34766C12.4141 3.34766 10.9284 3.64844 9.54297 4.25C8.13932 4.86979 6.91797 5.69922 5.87891 6.73828C4.85807 7.75911 4.04688 8.97135 3.44531 10.375C2.84375 11.7604 2.54297 13.2461 2.54297 14.832C2.54297 16.3997 2.84375 17.8763 3.44531 19.2617C4.04688 20.6654 4.85807 21.8867 5.87891 22.9258C6.91797 23.9466 8.13932 24.7578 9.54297 25.3594C10.9284 25.9609 12.4141 26.2617 14 26.2617ZM15.75 9.0625L11.2656 13.5469H21.5469V16.0898H11.2656L15.75 20.5742L13.9727 22.3789L6.39844 14.832L13.9727 7.25781L15.75 9.0625Z" fill="#434A8D"/>
</svg>
